<svg width="114" height="114" viewBox="0 0 114 114" fill="none" xmlns="http://www.w3.org/2000/svg">
<g filter="url(#filter0_d_374_29)">
<circle cx="57" cy="53" r="51" fill="#E97737"/>
</g>
<path d="M77.125 30.5833C76.5172 30.5833 75.9343 30.8248 75.5045 31.2545C75.0748 31.6843 74.8333 32.2672 74.8333 32.875V37.4583H70.25V32.875C70.25 32.2672 70.0085 31.6843 69.5788 31.2545C69.149 30.8248 68.5661 30.5833 67.9583 30.5833C67.3505 30.5833 66.7676 30.8248 66.3379 31.2545C65.9081 31.6843 65.6666 32.2672 65.6666 32.875V35.1667H47.3333V32.875C47.3333 32.2672 47.0919 31.6843 46.6621 31.2545C46.2323 30.8248 45.6494 30.5833 45.0416 30.5833C44.4339 30.5833 43.851 30.8248 43.4212 31.2545C42.9914 31.6843 42.75 32.2672 42.75 32.875V37.4583H38.1666V32.875C38.1666 32.2672 37.9252 31.6843 37.4954 31.2545C37.0657 30.8248 36.4828 30.5833 35.875 30.5833C35.2672 30.5833 34.6843 30.8248 34.2545 31.2545C33.8248 31.6843 33.5833 32.2672 33.5833 32.875V74.125C33.5833 74.7328 33.8248 75.3157 34.2545 75.7455C34.6843 76.1752 35.2672 76.4167 35.875 76.4167C36.4828 76.4167 37.0657 76.1752 37.4954 75.7455C37.9252 75.3157 38.1666 74.7328 38.1666 74.125V69.5417H42.75V74.125C42.75 74.7328 42.9914 75.3157 43.4212 75.7455C43.851 76.1752 44.4339 76.4167 45.0416 76.4167C45.6494 76.4167 46.2323 76.1752 46.6621 75.7455C47.0919 75.3157 47.3333 74.7328 47.3333 74.125V71.8333H65.6666V74.125C65.6666 74.7328 65.9081 75.3157 66.3379 75.7455C66.7676 76.1752 67.3505 76.4167 67.9583 76.4167C68.5661 76.4167 69.149 76.1752 69.5788 75.7455C70.0085 75.3157 70.25 74.7328 70.25 74.125V69.5417H74.8333V74.125C74.8333 74.7328 75.0748 75.3157 75.5045 75.7455C75.9343 76.1752 76.5172 76.4167 77.125 76.4167C77.7328 76.4167 78.3157 76.1752 78.7454 75.7455C79.1752 75.3157 79.4166 74.7328 79.4166 74.125V32.875C79.4166 32.2672 79.1752 31.6843 78.7454 31.2545C78.3157 30.8248 77.7328 30.5833 77.125 30.5833ZM42.75 64.9583H38.1666V60.375H42.75V64.9583ZM42.75 55.7917H38.1666V51.2083H42.75V55.7917ZM42.75 46.625H38.1666V42.0417H42.75V46.625ZM65.6666 67.25H47.3333V55.7917H65.6666V67.25ZM65.6666 51.2083H47.3333V39.75H65.6666V51.2083ZM74.8333 64.9583H70.25V60.375H74.8333V64.9583ZM74.8333 55.7917H70.25V51.2083H74.8333V55.7917ZM74.8333 46.625H70.25V42.0417H74.8333V46.625Z" fill="white"/>
<defs>
<filter id="filter0_d_374_29" x="0" y="0" width="114" height="114" filterUnits="userSpaceOnUse" color-interpolation-filters="sRGB">
<feFlood flood-opacity="0" result="BackgroundImageFix"/>
<feColorMatrix in="SourceAlpha" type="matrix" values="0 0 0 0 0 0 0 0 0 0 0 0 0 0 0 0 0 0 127 0" result="hardAlpha"/>
<feOffset dy="4"/>
<feGaussianBlur stdDeviation="3"/>
<feComposite in2="hardAlpha" operator="out"/>
<feColorMatrix type="matrix" values="0 0 0 0 0 0 0 0 0 0 0 0 0 0 0 0 0 0 0.25 0"/>
<feBlend mode="normal" in2="BackgroundImageFix" result="effect1_dropShadow_374_29"/>
<feBlend mode="normal" in="SourceGraphic" in2="effect1_dropShadow_374_29" result="shape"/>
</filter>
</defs>
</svg>
