<svg width="60" height="60" viewBox="0 0 60 60" fill="none" xmlns="http://www.w3.org/2000/svg">
<circle cx="29.8645" cy="29.8645" r="29.8645" fill="#E97737"/>
<path d="M36.9917 33.5062C37.1285 32.398 37.2312 31.2899 37.2312 30.1481C37.2312 29.0064 37.1285 27.8983 36.9917 26.7901H42.7748C43.0485 27.8647 43.2196 28.9896 43.2196 30.1481C43.2196 31.3067 43.0485 32.4316 42.7748 33.5062H36.9917ZM33.9632 42.8415C34.9898 40.9778 35.7768 38.9629 36.3244 36.8642H41.3718C39.7141 39.6652 37.0842 41.787 33.9632 42.8415ZM33.5355 33.5062H25.528C25.3569 32.398 25.2543 31.2899 25.2543 30.1481C25.2543 29.0064 25.3569 27.8815 25.528 26.7901H33.5355C33.6894 27.8815 33.8092 29.0064 33.8092 30.1481C33.8092 31.2899 33.6894 32.398 33.5355 33.5062ZM29.5317 43.5131C28.1116 41.4983 26.9653 39.2652 26.2638 36.8642H32.7997C32.0982 39.2652 30.9519 41.4983 29.5317 43.5131ZM22.6878 23.4321H17.6917C19.3323 20.6235 21.9603 18.4983 25.0832 17.4548C24.0566 19.3185 23.2866 21.3333 22.6878 23.4321ZM17.6917 36.8642H22.6878C23.2866 38.9629 24.0566 40.9778 25.0832 42.8415C21.9668 41.7865 19.3426 39.6643 17.6917 36.8642ZM16.2887 33.5062C16.0149 32.4316 15.8438 31.3067 15.8438 30.1481C15.8438 28.9896 16.0149 27.8647 16.2887 26.7901H22.0718C21.935 27.8983 21.8323 29.0064 21.8323 30.1481C21.8323 31.2899 21.935 32.398 22.0718 33.5062H16.2887ZM29.5317 16.7664C30.9519 18.7812 32.0982 21.0311 32.7997 23.4321H26.2638C26.9653 21.0311 28.1116 18.7812 29.5317 16.7664ZM41.3718 23.4321H36.3244C35.7889 21.3526 34.9959 19.3452 33.9632 17.4548C37.1114 18.5126 39.7292 20.6449 41.3718 23.4321ZM29.5317 13.358C20.07 13.358 12.4219 20.9136 12.4219 30.1481C12.4219 34.6012 14.2245 38.8718 17.4332 42.0205C19.022 43.5796 20.9082 44.8164 22.9841 45.6602C25.0599 46.504 27.2848 46.9383 29.5317 46.9383C34.0696 46.9383 38.4215 45.1693 41.6303 42.0205C44.839 38.8718 46.6416 34.6012 46.6416 30.1481C46.6416 27.9432 46.1991 25.7599 45.3392 23.7228C44.4794 21.6858 43.219 19.8348 41.6303 18.2757C40.0415 16.7166 38.1553 15.4799 36.0794 14.6361C34.0035 13.7923 31.7786 13.358 29.5317 13.358Z" fill="white"/>
</svg>
