<svg width="114" height="114" viewBox="0 0 114 114" fill="none" xmlns="http://www.w3.org/2000/svg">
<g filter="url(#filter0_d_374_26)">
<circle cx="57" cy="53" r="51" fill="#6D70C0"/>
</g>
<path d="M58.1863 66.0638C58.0694 65.9563 57.9421 65.8608 57.8063 65.7788C57.685 65.6847 57.5484 65.6124 57.4025 65.565C57.2611 65.4927 57.1086 65.4445 56.9512 65.4225C56.4962 65.3263 56.0225 65.3762 55.5975 65.565C55.3028 65.6717 55.0351 65.8418 54.8135 66.0635C54.5918 66.2851 54.4217 66.5528 54.315 66.8475C54.182 67.1294 54.117 67.4385 54.125 67.75C54.1212 68.0588 54.1777 68.3653 54.2912 68.6525C54.429 68.9363 54.6047 69.2 54.8137 69.4362C55.0357 69.6564 55.2989 69.8305 55.5882 69.9487C55.8776 70.0669 56.1874 70.1268 56.5 70.125C56.8115 70.133 57.1206 70.068 57.4025 69.935C57.6903 69.8147 57.9554 69.646 58.1863 69.4362C58.4064 69.2143 58.5805 68.9511 58.6987 68.6618C58.8169 68.3724 58.8768 68.0626 58.875 67.75C58.8712 67.4396 58.8067 67.133 58.685 66.8475C58.572 66.556 58.4025 66.2896 58.1863 66.0638V66.0638ZM48.3063 56.2788C48.185 56.1847 48.0484 56.1124 47.9025 56.065C47.7642 55.9761 47.6115 55.9118 47.4512 55.875C47.1466 55.8041 46.8297 55.8041 46.525 55.875L46.0975 56.0175L45.67 56.2312L45.3137 56.5163C44.8685 56.9833 44.6216 57.6047 44.625 58.25C44.6232 58.5626 44.6831 58.8724 44.8013 59.1618C44.9195 59.4511 45.0936 59.7143 45.3137 59.9363C45.5446 60.146 45.8097 60.3147 46.0975 60.435C46.4573 60.5828 46.8479 60.64 47.235 60.6015C47.6221 60.563 47.9938 60.4301 48.3174 60.2143C48.6411 59.9985 48.9068 59.7065 49.0912 59.364C49.2756 59.0215 49.3731 58.639 49.375 58.25C49.3663 57.6212 49.1202 57.0189 48.6863 56.5637L48.3063 56.2788ZM48.6863 66.0638C48.4604 65.8475 48.194 65.678 47.9025 65.565C47.4726 65.3657 46.9928 65.2995 46.525 65.375L46.0975 65.5175C45.9462 65.5695 45.8024 65.6414 45.67 65.7312C45.5456 65.8189 45.4266 65.9141 45.3137 66.0163C45.0975 66.2421 44.928 66.5085 44.815 66.8C44.6893 67.0843 44.6244 67.3917 44.6244 67.7025C44.6244 68.0133 44.6893 68.3207 44.815 68.605C44.9353 68.8928 45.104 69.1579 45.3137 69.3888C45.5317 69.6175 45.7931 69.8004 46.0827 69.9268C46.3722 70.0532 46.6841 70.1206 47 70.125C47.3115 70.133 47.6206 70.068 47.9025 69.935C48.1903 69.8147 48.4554 69.646 48.6863 69.4362C48.896 69.2054 49.0647 68.9403 49.185 68.6525C49.3107 68.3682 49.3756 68.0608 49.3756 67.75C49.3756 67.4392 49.3107 67.1318 49.185 66.8475C49.072 66.556 48.9025 66.2896 48.6863 66.0638V66.0638ZM55.5975 56.065C55.306 56.178 55.0396 56.3475 54.8137 56.5637C54.3798 57.0189 54.1337 57.6212 54.125 58.25C54.1269 58.639 54.2244 59.0215 54.4088 59.364C54.5932 59.7065 54.8589 59.9985 55.1826 60.2143C55.5062 60.4301 55.8779 60.563 56.265 60.6015C56.6521 60.64 57.0427 60.5828 57.4025 60.435C57.6903 60.3147 57.9554 60.146 58.1863 59.9363C58.4064 59.7143 58.5805 59.4511 58.6987 59.1618C58.8169 58.8724 58.8768 58.5626 58.875 58.25C58.8663 57.6212 58.6202 57.0189 58.1863 56.5637C57.8523 56.2342 57.4282 56.011 56.9674 55.9222C56.5067 55.8334 56.03 55.8831 55.5975 56.065ZM67.6862 66.0638C67.4554 65.854 67.1903 65.6853 66.9025 65.565C66.47 65.3831 65.9933 65.3334 65.5326 65.4222C65.0718 65.511 64.6477 65.7342 64.3137 66.0638C64.0975 66.2896 63.928 66.556 63.815 66.8475C63.6893 67.1318 63.6244 67.4392 63.6244 67.75C63.6244 68.0608 63.6893 68.3682 63.815 68.6525C63.9353 68.9403 64.104 69.2054 64.3137 69.4362C64.5357 69.6564 64.7989 69.8305 65.0882 69.9487C65.3776 70.0669 65.6874 70.1268 66 70.125C66.3115 70.133 66.6206 70.068 66.9025 69.935C67.1903 69.8147 67.4554 69.646 67.6862 69.4362C68.0158 69.1023 68.239 68.6782 68.3278 68.2174C68.4166 67.7567 68.3669 67.28 68.185 66.8475C68.072 66.556 67.9025 66.2896 67.6862 66.0638V66.0638ZM66 36.875H47C46.3701 36.875 45.766 37.1252 45.3206 37.5706C44.8752 38.016 44.625 38.6201 44.625 39.25V48.75C44.625 49.3799 44.8752 49.984 45.3206 50.4294C45.766 50.8748 46.3701 51.125 47 51.125H66C66.6299 51.125 67.234 50.8748 67.6794 50.4294C68.1248 49.984 68.375 49.3799 68.375 48.75V39.25C68.375 38.6201 68.1248 38.016 67.6794 37.5706C67.234 37.1252 66.6299 36.875 66 36.875ZM63.625 46.375H49.375V41.625H63.625V46.375ZM70.75 27.375H42.25C40.3603 27.375 38.5481 28.1257 37.2119 29.4619C35.8757 30.7981 35.125 32.6103 35.125 34.5V72.5C35.125 74.3897 35.8757 76.2019 37.2119 77.5381C38.5481 78.8743 40.3603 79.625 42.25 79.625H70.75C72.6397 79.625 74.4519 78.8743 75.7881 77.5381C77.1243 76.2019 77.875 74.3897 77.875 72.5V34.5C77.875 32.6103 77.1243 30.7981 75.7881 29.4619C74.4519 28.1257 72.6397 27.375 70.75 27.375V27.375ZM73.125 72.5C73.125 73.1299 72.8748 73.734 72.4294 74.1794C71.984 74.6248 71.3799 74.875 70.75 74.875H42.25C41.6201 74.875 41.016 74.6248 40.5706 74.1794C40.1252 73.734 39.875 73.1299 39.875 72.5V34.5C39.875 33.8701 40.1252 33.266 40.5706 32.8206C41.016 32.3752 41.6201 32.125 42.25 32.125H70.75C71.3799 32.125 71.984 32.3752 72.4294 32.8206C72.8748 33.266 73.125 33.8701 73.125 34.5V72.5ZM67.3062 56.2788C67.185 56.1847 67.0484 56.1124 66.9025 56.065C66.7611 55.9927 66.6086 55.9445 66.4513 55.9225C66.1466 55.8516 65.8297 55.8516 65.525 55.9225L65.0975 56.065L64.67 56.2788L64.3137 56.5637C63.8798 57.0189 63.6337 57.6212 63.625 58.25C63.6269 58.639 63.7244 59.0215 63.9088 59.364C64.0932 59.7065 64.3589 59.9985 64.6826 60.2143C65.0062 60.4301 65.3779 60.563 65.765 60.6015C66.1521 60.64 66.5427 60.5828 66.9025 60.435C67.1903 60.3147 67.4554 60.146 67.6862 59.9363C67.9064 59.7143 68.0805 59.4511 68.1987 59.1618C68.3169 58.8724 68.3768 58.5626 68.375 58.25C68.3663 57.6212 68.1202 57.0189 67.6862 56.5637L67.3062 56.2788Z" fill="white"/>
<defs>
<filter id="filter0_d_374_26" x="0" y="0" width="114" height="114" filterUnits="userSpaceOnUse" color-interpolation-filters="sRGB">
<feFlood flood-opacity="0" result="BackgroundImageFix"/>
<feColorMatrix in="SourceAlpha" type="matrix" values="0 0 0 0 0 0 0 0 0 0 0 0 0 0 0 0 0 0 127 0" result="hardAlpha"/>
<feOffset dy="4"/>
<feGaussianBlur stdDeviation="3"/>
<feComposite in2="hardAlpha" operator="out"/>
<feColorMatrix type="matrix" values="0 0 0 0 0 0 0 0 0 0 0 0 0 0 0 0 0 0 0.25 0"/>
<feBlend mode="normal" in2="BackgroundImageFix" result="effect1_dropShadow_374_26"/>
<feBlend mode="normal" in="SourceGraphic" in2="effect1_dropShadow_374_26" result="shape"/>
</filter>
</defs>
</svg>
