<svg width="114" height="114" viewBox="0 0 114 114" fill="none" xmlns="http://www.w3.org/2000/svg">
<g filter="url(#filter0_d_374_28)">
<circle cx="57" cy="53" r="51" fill="#3D88CD"/>
</g>
<path d="M79.4117 46.4141L74.7654 44.8035L76.9533 40.253C77.1751 39.7767 77.2493 39.2406 77.1656 38.7186C77.082 38.1966 76.8446 37.7144 76.4862 37.3387L71.25 31.8934C70.8867 31.5153 70.4187 31.2651 69.9115 31.178C69.4044 31.0908 68.8838 31.1712 68.4229 31.4077L64.0471 33.683L62.4983 28.8513C62.3348 28.3476 62.0243 27.9095 61.6101 27.598C61.1959 27.2864 60.6987 27.1168 60.1875 27.1129H52.8125C52.2971 27.1115 51.7944 27.2786 51.3753 27.5905C50.9562 27.9025 50.642 28.3435 50.4771 28.8513L48.9283 33.683L44.5525 31.4077C44.0945 31.1771 43.5789 31.0999 43.0769 31.1869C42.575 31.2739 42.1113 31.5208 41.75 31.8934L36.5137 37.3387C36.1501 37.7164 35.9095 38.2032 35.8257 38.7305C35.7419 39.2579 35.8192 39.7993 36.0467 40.2786L38.2346 44.8291L33.5883 46.4396C33.104 46.6097 32.6827 46.9326 32.3831 47.3633C32.0835 47.794 31.9205 48.3111 31.9167 48.8427V56.512C31.9153 57.048 32.076 57.5708 32.376 58.0066C32.676 58.4424 33.1001 58.7691 33.5883 58.9406L38.2346 60.5512L36.0467 65.1017C35.8249 65.578 35.7507 66.1141 35.8344 66.6361C35.918 67.1581 36.1554 67.6403 36.5137 68.016L41.75 73.4612C42.1133 73.8394 42.5813 74.0896 43.0885 74.1767C43.5956 74.2638 44.1162 74.1835 44.5771 73.947L48.9529 71.6717L50.5017 76.5034C50.6666 77.0112 50.9808 77.4522 51.3999 77.7641C51.8189 78.0761 52.3217 78.2432 52.8371 78.2418H60.2121C60.7275 78.2432 61.2302 78.0761 61.6493 77.7641C62.0684 77.4522 62.3826 77.0112 62.5475 76.5034L64.0962 71.6717L68.4721 73.947C68.9272 74.1718 69.4377 74.2458 69.9346 74.1589C70.4314 74.072 70.8906 73.8285 71.25 73.4612L76.4862 68.016C76.8499 67.6383 77.0905 67.1515 77.1743 66.6241C77.2581 66.0968 77.1808 65.5554 76.9533 65.0761L74.7654 60.5256L79.4117 58.9151C79.896 58.745 80.3172 58.4221 80.6169 57.9914C80.9165 57.5607 81.0795 57.0436 81.0833 56.512V48.8427C81.0847 48.3067 80.924 47.7839 80.624 47.3481C80.324 46.9123 79.8999 46.5856 79.4117 46.4141ZM76.1667 54.6714L73.2167 55.6939C72.5383 55.9228 71.9159 56.3023 71.3927 56.8063C70.8695 57.3102 70.458 57.9265 70.1867 58.6123C69.9154 59.2982 69.7908 60.0372 69.8216 60.7781C69.8524 61.5191 70.0378 62.2442 70.365 62.9031L71.7662 65.8175L69.0621 68.6296L66.3333 67.0957C65.7029 66.7691 65.0124 66.5871 64.3084 66.5622C63.6045 66.5372 62.9036 66.6698 62.2533 66.951C61.6029 67.2322 61.0182 67.6554 60.5388 68.192C60.0594 68.7286 59.6965 69.366 59.4746 70.0612L58.4912 73.1289H54.5825L53.5992 70.0612C53.3791 69.3557 53.0141 68.7085 52.5295 68.1644C52.0449 67.6203 51.4523 67.1924 50.7928 66.9102C50.1332 66.6281 49.4226 66.4986 48.7101 66.5306C47.9976 66.5626 47.3003 66.7554 46.6667 67.0957L43.8642 68.5529L41.16 65.7408L42.635 62.9031C42.9622 62.2442 43.1476 61.5191 43.1784 60.7781C43.2092 60.0372 43.0846 59.2982 42.8133 58.6123C42.542 57.9265 42.1305 57.3102 41.6073 56.8063C41.0841 56.3023 40.4617 55.9228 39.7833 55.6939L36.8333 54.6714V50.6833L39.7833 49.6607C40.4617 49.4319 41.0841 49.0524 41.6073 48.5484C42.1305 48.0445 42.542 47.4282 42.8133 46.7424C43.0846 46.0565 43.2092 45.3175 43.1784 44.5765C43.1476 43.8356 42.9622 43.1105 42.635 42.4516L41.2337 39.6139L43.9379 36.8018L46.6667 38.259C47.3003 38.5992 47.9976 38.7921 48.7101 38.8241C49.4226 38.8561 50.1332 38.7266 50.7928 38.4444C51.4523 38.1623 52.0449 37.7344 52.5295 37.1903C53.0141 36.6462 53.3791 35.999 53.5992 35.2935L54.5825 32.2258H58.4175L59.4008 35.2935C59.6209 35.999 59.9858 36.6462 60.4705 37.1903C60.9551 37.7344 61.5477 38.1623 62.2072 38.4444C62.8668 38.7266 63.5774 38.8561 64.2899 38.8241C65.0024 38.7921 65.6997 38.5992 66.3333 38.259L69.1358 36.8018L71.84 39.6139L70.365 42.4516C70.0509 43.1071 69.8759 43.8253 69.8519 44.5573C69.8279 45.2893 69.9554 46.0181 70.2258 46.6944C70.4962 47.3708 70.9032 47.9788 71.4192 48.4773C71.9352 48.9758 72.5482 49.3533 73.2167 49.584L76.1667 50.6066V54.6714ZM56.5 42.4516C54.5551 42.4516 52.654 43.0513 51.0369 44.1749C49.4198 45.2985 48.1594 46.8956 47.4152 48.7641C46.6709 50.6326 46.4762 52.6887 46.8556 54.6723C47.235 56.6559 48.1716 58.478 49.5468 59.9081C50.922 61.3382 52.6741 62.3121 54.5816 62.7066C56.4891 63.1012 58.4662 62.8987 60.2631 62.1247C62.0599 61.3508 63.5956 60.0401 64.6761 58.3585C65.7566 56.6769 66.3333 54.6998 66.3333 52.6773C66.3333 49.9653 65.2973 47.3643 63.4532 45.4466C61.6091 43.5289 59.108 42.4516 56.5 42.4516ZM56.5 57.7902C55.5276 57.7902 54.577 57.4904 53.7684 56.9286C52.9599 56.3667 52.3297 55.5682 51.9576 54.634C51.5855 53.6997 51.4881 52.6717 51.6778 51.6799C51.8675 50.6881 52.3358 49.777 53.0234 49.062C53.711 48.3469 54.5871 47.86 55.5408 47.6627C56.4945 47.4654 57.4831 47.5667 58.3815 47.9536C59.2799 48.3406 60.0478 48.996 60.5881 49.8368C61.1283 50.6776 61.4167 51.6661 61.4167 52.6773C61.4167 54.0334 60.8987 55.3338 59.9766 56.2927C59.0546 57.2516 57.804 57.7902 56.5 57.7902Z" fill="white"/>
<defs>
<filter id="filter0_d_374_28" x="0" y="0" width="114" height="114" filterUnits="userSpaceOnUse" color-interpolation-filters="sRGB">
<feFlood flood-opacity="0" result="BackgroundImageFix"/>
<feColorMatrix in="SourceAlpha" type="matrix" values="0 0 0 0 0 0 0 0 0 0 0 0 0 0 0 0 0 0 127 0" result="hardAlpha"/>
<feOffset dy="4"/>
<feGaussianBlur stdDeviation="3"/>
<feComposite in2="hardAlpha" operator="out"/>
<feColorMatrix type="matrix" values="0 0 0 0 0 0 0 0 0 0 0 0 0 0 0 0 0 0 0.25 0"/>
<feBlend mode="normal" in2="BackgroundImageFix" result="effect1_dropShadow_374_28"/>
<feBlend mode="normal" in="SourceGraphic" in2="effect1_dropShadow_374_28" result="shape"/>
</filter>
</defs>
</svg>
