<svg width="114" height="114" viewBox="0 0 114 114" fill="none" xmlns="http://www.w3.org/2000/svg">
<g filter="url(#filter0_d_374_27)">
<circle cx="57" cy="53" r="51" fill="#5C9443"/>
</g>
<path d="M40.2917 52.5C40.2917 51.848 40.0327 51.2227 39.5716 50.7617C39.1106 50.3007 38.4853 50.0417 37.8333 50.0417H35.375C34.723 50.0417 34.0977 50.3007 33.6367 50.7617C33.1757 51.2227 32.9167 51.848 32.9167 52.5C32.9167 53.152 33.1757 53.7773 33.6367 54.2383C34.0977 54.6993 34.723 54.9583 35.375 54.9583H37.8333C38.4853 54.9583 39.1106 54.6993 39.5716 54.2383C40.0327 53.7773 40.2917 53.152 40.2917 52.5ZM41.865 64.7917L40.1196 66.5371C39.6617 66.9977 39.4047 67.6208 39.4047 68.2702C39.4047 68.9197 39.6617 69.5427 40.1196 70.0033C40.5802 70.4612 41.2033 70.7182 41.8527 70.7182C42.5022 70.7182 43.1252 70.4612 43.5858 70.0033L45.3313 68.2579C45.734 67.7876 45.9444 67.1827 45.9205 66.564C45.8966 65.9453 45.6402 65.3584 45.2023 64.9206C44.7645 64.4828 44.1776 64.2263 43.5589 64.2024C42.9402 64.1785 42.3353 64.3889 41.865 64.7917ZM57.5 35.2917C58.152 35.2917 58.7773 35.0327 59.2383 34.5716C59.6993 34.1106 59.9583 33.4853 59.9583 32.8333V30.375C59.9583 29.723 59.6993 29.0977 59.2383 28.6367C58.7773 28.1757 58.152 27.9167 57.5 27.9167C56.848 27.9167 56.2227 28.1757 55.7617 28.6367C55.3007 29.0977 55.0417 29.723 55.0417 30.375V32.8333C55.0417 33.4853 55.3007 34.1106 55.7617 34.5716C56.2227 35.0327 56.848 35.2917 57.5 35.2917ZM71.4142 41.0442C72.0591 41.0415 72.6771 40.7854 73.135 40.3313L74.8804 38.5858C75.1378 38.3655 75.3468 38.0943 75.4943 37.7893C75.6419 37.4843 75.7248 37.1521 75.7379 36.8135C75.751 36.475 75.6939 36.1373 75.5703 35.8219C75.4467 35.5064 75.2593 35.2199 75.0197 34.9803C74.7801 34.7407 74.4936 34.5533 74.1781 34.4297C73.8627 34.3061 73.5251 34.249 73.1865 34.2621C72.8479 34.2752 72.5157 34.3581 72.2107 34.5057C71.9058 34.6532 71.6346 34.8622 71.4142 35.1196L69.7917 36.865C69.3338 37.3256 69.0768 37.9487 69.0768 38.5981C69.0768 39.2476 69.3338 39.8707 69.7917 40.3313C70.2251 40.7624 70.8035 41.0165 71.4142 41.0442ZM41.9142 40.3313C42.3721 40.7854 42.9901 41.0415 43.635 41.0442C43.9585 41.046 44.2793 40.984 44.5788 40.8617C44.8783 40.7394 45.1507 40.5591 45.3804 40.3313C45.8383 39.8707 46.0953 39.2476 46.0953 38.5981C46.0953 37.9487 45.8383 37.3256 45.3804 36.865L43.635 35.1196C43.1754 34.6534 42.5493 34.3889 41.8947 34.3843C41.24 34.3797 40.6103 34.6354 40.1442 35.095C39.678 35.5547 39.4135 36.1807 39.4089 36.8353C39.4043 37.49 39.6599 38.1197 40.1196 38.5858L41.9142 40.3313ZM79.625 50.0417H77.1667C76.5147 50.0417 75.8894 50.3007 75.4284 50.7617C74.9673 51.2227 74.7083 51.848 74.7083 52.5C74.7083 53.152 74.9673 53.7773 75.4284 54.2383C75.8894 54.6993 76.5147 54.9583 77.1667 54.9583H79.625C80.277 54.9583 80.9023 54.6993 81.3633 54.2383C81.8243 53.7773 82.0833 53.152 82.0833 52.5C82.0833 51.848 81.8243 51.2227 81.3633 50.7617C80.9023 50.3007 80.277 50.0417 79.625 50.0417ZM73.135 64.7917C72.668 64.5319 72.129 64.4314 71.5997 64.5054C71.0704 64.5794 70.5796 64.8238 70.2017 65.2017C69.8238 65.5796 69.5794 66.0704 69.5054 66.5997C69.4314 67.129 69.5319 67.668 69.7917 68.135L71.5371 69.8804C71.9977 70.3383 72.6208 70.5953 73.2702 70.5953C73.9197 70.5953 74.5427 70.3383 75.0033 69.8804C75.4612 69.4198 75.7182 68.7968 75.7182 68.1473C75.7182 67.4978 75.4612 66.8748 75.0033 66.4142L73.135 64.7917ZM57.5 38.9792C54.8258 38.9792 52.2117 39.7722 49.9882 41.2578C47.7647 42.7435 46.0317 44.8552 45.0084 47.3258C43.985 49.7964 43.7173 52.515 44.239 55.1378C44.7607 57.7606 46.0484 60.1698 47.9393 62.0607C49.8303 63.9516 52.2394 65.2393 54.8622 65.761C57.485 66.2827 60.2036 66.015 62.6742 64.9916C65.1448 63.9683 67.2565 62.2353 68.7422 60.0118C70.2279 57.7883 71.0208 55.1742 71.0208 52.5C71.0143 48.9161 69.5877 45.4808 67.0535 42.9465C64.5193 40.4123 61.084 38.9857 57.5 38.9792ZM57.5 61.1042C55.7983 61.1042 54.1347 60.5995 52.7198 59.6541C51.3048 58.7087 50.202 57.3649 49.5508 55.7927C48.8996 54.2205 48.7292 52.4905 49.0612 50.8214C49.3932 49.1524 50.2126 47.6193 51.4159 46.4159C52.6193 45.2126 54.1524 44.3932 55.8214 44.0612C57.4905 43.7292 59.2205 43.8996 60.7927 44.5508C62.3649 45.202 63.7087 46.3048 64.6541 47.7198C65.5995 49.1347 66.1042 50.7983 66.1042 52.5C66.1042 54.782 65.1977 56.9705 63.5841 58.5841C61.9705 60.1977 59.782 61.1042 57.5 61.1042ZM57.5 69.7083C56.848 69.7083 56.2227 69.9673 55.7617 70.4284C55.3007 70.8894 55.0417 71.5147 55.0417 72.1667V74.625C55.0417 75.277 55.3007 75.9023 55.7617 76.3633C56.2227 76.8243 56.848 77.0833 57.5 77.0833C58.152 77.0833 58.7773 76.8243 59.2383 76.3633C59.6993 75.9023 59.9583 75.277 59.9583 74.625V72.1667C59.9583 71.5147 59.6993 70.8894 59.2383 70.4284C58.7773 69.9673 58.152 69.7083 57.5 69.7083Z" fill="white"/>
<defs>
<filter id="filter0_d_374_27" x="0" y="0" width="114" height="114" filterUnits="userSpaceOnUse" color-interpolation-filters="sRGB">
<feFlood flood-opacity="0" result="BackgroundImageFix"/>
<feColorMatrix in="SourceAlpha" type="matrix" values="0 0 0 0 0 0 0 0 0 0 0 0 0 0 0 0 0 0 127 0" result="hardAlpha"/>
<feOffset dy="4"/>
<feGaussianBlur stdDeviation="3"/>
<feComposite in2="hardAlpha" operator="out"/>
<feColorMatrix type="matrix" values="0 0 0 0 0 0 0 0 0 0 0 0 0 0 0 0 0 0 0.25 0"/>
<feBlend mode="normal" in2="BackgroundImageFix" result="effect1_dropShadow_374_27"/>
<feBlend mode="normal" in="SourceGraphic" in2="effect1_dropShadow_374_27" result="shape"/>
</filter>
</defs>
</svg>
